<svg xmlns="http://www.w3.org/2000/svg" version="1.1" xmlns:xlink="http://www.w3.org/1999/xlink" width="2000" height="1500" viewBox="0 0 2000 1500"><rect width="2000" height="1500" x="0" y="0" id="background" stroke="transparent" fill="#eeeeee"></rect><svg xml:space="preserve" width="1500" height="1125" data-version="2" data-id="lg_2SKj7HZ3CdITIfTRgd" viewBox="0 0 408 412" x="250" y="187.5"><rect width="100%" height="100%" fill="transparent"></rect><path fill="#5b5b5b" d="M178.021 4.176C84.985 10.754 10.659 85.08 4.081 178.116c-.514 7.26 5.217 13.441 12.495 13.441H178.94c6.917 0 12.526-5.608 12.526-12.526V16.671c0-7.278-6.181-13.006-13.442-12.495ZM403.92 178.112C397.34 85.076 323.014 10.75 229.978 4.172c-7.26-.514-13.441 5.217-13.441 12.495V179.03c0 6.917 5.608 12.526 12.526 12.526h162.36c7.278 0 13.006-6.181 12.495-13.442Zm-13.406 39.173c-93.036 6.578-167.362 80.904-173.94 173.94-.514 7.26 5.217 13.441 12.495 13.441h162.364c6.917 0 12.526-5.608 12.526-12.526V229.78c0-7.278-6.181-13.006-13.442-12.495ZM4.08 233.888c6.58 93.036 80.905 167.362 173.941 173.94 7.26.514 13.441-5.217 13.441-12.495V232.97c0-6.917-5.608-12.526-12.526-12.526H16.576c-7.278 0-13.006 6.181-12.495 13.442Z"></path></svg></svg>